<?xml version="1.0" encoding="UTF-8" standalone="no"?>
<!-- Created with Inkscape (http://www.inkscape.org/) -->

<svg
   width="68.791466mm"
   height="132.29175mm"
   viewBox="0 0 68.791466 132.29175"
   version="1.1"
   id="svg5"
   xml:space="preserve"
   inkscape:export-filename="icon-nobg.png"
   inkscape:export-xdpi="176.845"
   inkscape:export-ydpi="176.845"
   inkscape:version="1.2.1 (9c6d41e410, 2022-07-14)"
   sodipodi:docname="icon-nobg.svg"
   xmlns:inkscape="http://www.inkscape.org/namespaces/inkscape"
   xmlns:sodipodi="http://sodipodi.sourceforge.net/DTD/sodipodi-0.dtd"
   xmlns="http://www.w3.org/2000/svg"
   xmlns:svg="http://www.w3.org/2000/svg"><sodipodi:namedview
     id="namedview7"
     pagecolor="#505050"
     bordercolor="#eeeeee"
     borderopacity="1"
     inkscape:showpageshadow="0"
     inkscape:pageopacity="0"
     inkscape:pagecheckerboard="0"
     inkscape:deskcolor="#505050"
     inkscape:document-units="mm"
     showgrid="false"
     inkscape:zoom="0.72515432"
     inkscape:cx="40.680996"
     inkscape:cy="377.1611"
     inkscape:window-width="1920"
     inkscape:window-height="1001"
     inkscape:window-x="-9"
     inkscape:window-y="-9"
     inkscape:window-maximized="1"
     inkscape:current-layer="layer1" /><defs
     id="defs2" /><g
     inkscape:label="Layer 1"
     inkscape:groupmode="layer"
     id="layer1"
     transform="translate(-67.766426,-48.786555)"><g
       style="clip-rule:evenodd;fill:#a855f7;fill-opacity:1;fill-rule:evenodd;stroke-linejoin:round;stroke-miterlimit:2"
       id="g191"
       transform="matrix(0.26458333,0,0,0.26458333,36.016313,48.786602)"><path
         d="M 307.732,25.5 C 302.289,10.337 290.236,2.811 292.033,1.34 c 6.084,-4.981 15.105,4.64 21.14,17.023 0.033,0.735 0.67,2.081 1.597,3.747 l 0.086,-0.042 c -0.528,-1.255 -1.091,-2.494 -1.683,-3.705 -0.011,-0.117 -10e-4,-0.219 0.025,-0.304 2.685,-8.636 14.65,10.37 17.109,23.13 2.052,10.651 -2.915,21.524 -6.909,30.036 -0.017,0.08 -0.053,0.169 -0.101,0.265 0.511,-0.01 0.553,0.258 0.381,0.653 0.483,-0.035 0.603,0.164 0.351,0.602 l 0.439,0.113 0.459,0.788 c 5.639,1.644 6.528,11.664 4.97,12.586 -1.124,0.664 -5.731,-2.096 -7.716,-5.848 l -0.295,15.829 c 0.419,-0.05 0.596,0.121 0.373,0.654 0.579,-0.03 0.655,0.25 0.42,0.721 0.511,-0.01 0.552,0.258 0.38,0.652 0.484,-0.035 0.604,0.164 0.352,0.602 l 0.438,0.113 0.46,0.788 c 5.638,1.645 6.528,11.665 4.97,12.586 -1.101,0.651 -5.545,-1.984 -7.589,-5.62 l -0.163,8.761 c -0.018,0.935 -0.786,1.68 -1.714,1.662 -0.929,-0.017 -1.668,-0.791 -1.651,-1.726 L 318.7,86.577 c -1.07,3.589 -3.041,7.573 -7.893,12.752 -1.288,1.375 -2.289,2.666 -3.109,3.893 l -0.04,2.727 c 0.495,-0.115 0.731,0.027 0.515,0.616 0.577,-0.056 0.666,0.22 0.453,0.701 0.51,-0.033 0.563,0.233 0.409,0.634 0.482,-0.057 0.61,0.136 0.378,0.586 l 0.443,0.093 0.495,0.766 c 5.707,1.385 7.047,11.353 5.532,12.345 -1.165,0.763 -6.464,-2.185 -8.362,-6.234 l -0.36,24.862 c -0.014,0.935 -0.778,1.683 -1.707,1.67 -0.928,-0.014 -1.671,-0.784 -1.658,-1.719 l 0.088,-6.066 c -1.987,3.889 -6.981,6.703 -8.12,5.976 -1.527,-0.974 -0.302,-10.958 5.389,-12.41 l 0.485,-0.772 0.442,-0.098 c -0.237,-0.447 -0.111,-0.641 0.372,-0.59 -0.159,-0.4 -0.109,-0.666 0.402,-0.639 -0.219,-0.479 -0.134,-0.755 0.444,-0.706 -0.254,-0.668 0.086,-0.763 0.728,-0.566 l 0.213,-14.733 c -1.259,2.563 -2.647,4.952 -5.71,7.44 -7.861,6.385 -25.366,18.4 -34.32,24.699 56.823,21.001 102.784,123.234 36.638,171.384 l 0.07,0.227 -0.292,-0.069 c -1.85,1.34 -3.787,2.638 -5.816,3.888 -1.559,-4.198 -4.2,-7.452 -7.329,-9.944 2.628,9.468 4.667,20.477 6.585,30.602 2.813,14.857 4.087,34.772 5.821,45.249 0.991,5.988 3.324,10.878 4.58,17.617 2.406,12.904 8.874,40.749 15.419,49.961 4.212,5.928 2.407,12.724 5.484,15.615 3.426,3.218 15.59,16.662 12.703,17.983 -4.365,1.997 -23.678,1.537 -25.3,-0.789 -2.065,-2.962 0.392,-13.5 -2.234,-17.182 -1.629,-2.284 -6.109,-3.464 -7.051,-6.101 -2.327,-6.507 -5.65,-31.908 -10.014,-45.133 -2.283,-6.919 -6.702,-11.481 -8.753,-17.758 -2.152,-6.587 -1.089,-15.056 -4.161,-21.765 -4.225,-9.228 -15.896,-19.963 -21.188,-33.602 -5.35,-13.789 -7.738,-24.046 -7.802,-32.018 -1.856,4.643 -2.539,11.224 -0.739,20.417 -15.099,0.386 -32.165,-1.382 -49.921,-1.671 4.651,4.441 11.523,3.129 15.48,5.405 -5.426,20.568 -30.558,39.453 -31.525,60.935 -1.115,24.783 1.367,30.304 8.851,57.005 0.891,3.178 -1.479,5.513 -0.698,8.317 2.35,8.439 14.798,21.574 13.564,23.859 -2.179,4.038 -23.566,2.971 -28.664,-1.115 -0.927,-0.743 -0.298,-11.674 0.189,-15.251 0.293,-2.149 2.522,-4.77 2.068,-7.239 -0.592,-3.226 -5.266,-7.673 -5.622,-12.117 -0.724,-9.03 4.509,-25.085 1.277,-42.062 -1.413,-7.422 -6.161,-9.595 -6.814,-15.655 -0.561,-5.206 4.18,-10.88 7.648,-18.792 19.41,-16.456 21.79,-42.553 14.117,-56.508 1.599,7.79 1.062,18.134 -3.09,31.873 -6.732,22.277 -43.843,51.607 -45.189,59.496 -0.928,5.44 -1.369,26.874 0.889,42.325 2.016,13.801 1.861,16.653 0.43,20.201 -2.13,5.28 0.058,7.336 10.156,28.057 2.471,5.07 -25.52,1.781 -28.905,-2.895 -1.152,-1.591 1.035,-11.889 2.105,-14.83 1.248,-3.427 4.298,-6.888 1.955,-10.795 -2.027,-3.381 -3.543,-9.016 -2.511,-13.463 1.607,-6.925 5.347,-22.156 5.356,-31.123 0.01,-9.239 0.398,-10.512 -4.172,-18.695 -4.075,-7.295 7.56,-16.704 8.917,-23.276 5.63,-27.265 -9.6,-44.925 -7.937,-60.564 0.667,-6.276 2.008,-11.275 3.797,-15.251 -0.448,-0.341 -0.905,-0.623 -1.368,-0.839 -4.354,-2.032 -13.713,-10.726 -10.585,-15.399 2.447,-3.656 20.196,0.864 28.562,-3.892 11.364,-6.46 24.384,-16.73 35.077,-17.402 20.321,-1.278 44.553,1.39 52.695,-8.928 8.607,-10.907 21.086,-16.851 28.395,-23.86 8.731,-8.374 13.19,-31.922 6.149,-38.04 -16.008,-13.911 -33.247,12.986 -44.56,20.109 -4.223,2.659 -19.913,-0.179 -16.762,-4.052 10.279,-12.637 14.431,-42.408 23.32,-60.58 -2.877,-2.421 -6.176,-5.82 -11.833,-7.413 -9.46,-2.663 -36.402,1.721 -66.887,-17.812 -8.26,-5.292 -18.901,-23.978 -17.756,-32.446 0.834,-6.169 8.15,12.397 16.874,19.823 5.281,4.495 8.232,6.747 7.172,-7.147 -0.962,-12.606 4.305,-15.271 6.001,-2.905 0.552,4.024 2.089,7.672 2.322,10.971 0.452,6.389 4.81,11.781 8.915,13.388 6.789,2.658 13.436,5.488 5.198,-8.827 -1.85,-3.213 -4.027,-11.151 -7.876,-16.633 -3.995,-5.689 -9.674,-9.427 -12.151,-12.543 -6.152,-7.74 -7.004,-15.082 2.428,-5.861 2.27,2.22 3.898,3.286 5.024,3.503 l -0.107,-0.098 c -0.626,-0.644 -0.726,-1.342 -0.518,-2.027 0.136,-0.445 0.535,-1.095 1.58,-1.597 0.132,-0.064 0.552,-0.185 1.153,-0.337 -0.117,-1.8 -0.566,-4.011 -1.168,-6.253 -2.268,-8.446 -1.384,-32.241 1.943,-32.126 6.13,0.213 4.956,9.991 6.827,36.05 l 0.042,0.537 1.458,-0.322 c 12.384,-2.573 25.242,-6.238 38.105,-10.838 0.123,-0.146 0.246,-0.25 0.36,-0.262 -0.008,0.001 0.007,-10e-4 0,0 0.064,-0.007 0.136,0.014 0.213,0.057 27.06,-9.712 54.119,-23.524 76.829,-39.916 -0.176,-0.331 -0.292,-0.686 -0.336,-1.069 -0.161,-1.4 1.437,-1.536 3.515,-1.262 1.731,-1.28 3.427,-2.58 5.095,-3.894 0.096,-0.076 0.2,-0.141 0.311,-0.194 z m 22.939,257.585 c 3.527,1.881 6.736,4.154 9.141,6.637 11.201,11.559 34.927,21.38 39.116,31.463 6.237,15.011 -16.408,38.854 -25.202,56.582 -2.66,5.364 -4.356,11.286 -7.427,15.694 -5.351,7.681 -20.656,27.912 -23.788,28.89 -2.069,0.646 -1.276,-20.49 -1.292,-26.327 -0.007,-2.518 8.732,-2.915 10.884,-7.526 1.266,-2.712 -1.537,-6.91 0.142,-9.645 6.514,-10.613 31.095,-40.285 28.012,-50.515 -2.294,-7.613 -30.424,-13.239 -36.156,-13.718 -6.014,-0.503 -12.23,-0.226 -17.565,-0.538 9.144,-7.45 18.225,-15.92 24.135,-30.997 z m -32.176,-219.013 -1.67,1.161 c 0.281,0.182 0.193,0.411 -0.076,0.662 0.458,0.162 0.489,0.392 0.085,0.693 l 0.358,0.28 0.11,0.907 c 4.526,3.765 1.389,13.316 -0.404,13.538 -1.793,0.223 -7.135,-8.278 -3.65,-13.036 l -0.069,-0.567 c -3.295,2.2 -6.538,4.258 -9.735,6.174 0.235,0.193 0.135,0.424 -0.19,0.679 0.466,0.212 0.389,0.472 0.066,0.754 0.452,0.177 0.476,0.408 0.061,0.695 l 0.348,0.292 0.08,0.91 c 4.394,3.92 0.934,13.357 -0.866,13.517 -1.8,0.16 -6.848,-8.521 -3.203,-13.155 l -0.08,-0.91 0.292,-0.349 c -0.147,-0.067 -0.249,-0.137 -0.302,-0.211 -4.067,2.322 -8.072,4.419 -12.034,6.297 0.407,0.24 0.319,0.502 -0.083,0.777 0.451,0.242 0.358,0.497 0.017,0.756 0.439,0.207 0.448,0.44 0.016,0.699 l 0.328,0.314 0.02,0.913 c 4.13,4.202 0.061,13.39 -1.746,13.43 -1.806,0.041 -6.277,-8.955 -2.338,-13.338 l -0.02,-0.914 0.314,-0.328 c -0.438,-0.236 -0.445,-0.466 -0.03,-0.689 -4.236,1.883 -8.431,3.519 -12.614,4.913 -0.043,0.11 -0.151,0.223 -0.311,0.341 0.458,0.227 0.374,0.484 0.042,0.755 0.445,0.192 0.462,0.424 0.038,0.697 l 0.339,0.303 0.05,0.912 c 4.266,4.062 0.504,13.381 -1.3,13.482 -1.805,0.101 -6.571,-8.74 -2.779,-13.253 l -0.05,-0.912 0.303,-0.339 c -0.451,-0.224 -0.46,-0.457 -0.038,-0.697 l -0.099,-0.08 c -4.894,1.471 -9.779,2.621 -14.694,3.466 0.143,0.18 0.03,0.371 -0.219,0.568 0.443,0.199 0.455,0.431 0.027,0.698 l 0.334,0.308 0.037,0.913 c 4.201,4.129 0.293,13.386 -1.512,13.459 -1.806,0.072 -6.433,-8.843 -2.57,-13.295 l -0.037,-0.913 0.309,-0.334 c -0.448,-0.232 -0.453,-0.464 -0.028,-0.698 l -0.139,-0.116 c -5.454,0.759 -10.959,1.15 -16.574,1.193 l -0.074,0.066 c 0.435,0.218 0.437,0.451 -0.001,0.699 l 0.321,0.322 -0.003,0.914 c 4.025,4.303 -0.267,13.387 -2.074,13.382 -1.807,-0.004 -6.056,-9.108 -2.011,-13.392 l 0.002,-0.914 0.323,-0.321 c -0.438,-0.25 -0.434,-0.482 10e-4,-0.698 l -0.081,-0.074 -1.63,-0.036 -1.167,-0.042 c -0.701,1.442 -1.521,2.405 -2.103,2.417 -0.625,0.013 -1.568,-1.058 -2.361,-2.648 -1.199,-0.079 -2.405,-0.173 -3.619,-0.283 0.439,2.114 0.278,5.807 -0.912,11.269 -1.35,6.198 -8.415,5.958 -6.938,9.666 1.55,3.892 3.421,11.384 10.622,15.684 5.375,3.209 9.946,3.697 17.122,5.815 8.886,2.622 4.85,-1.593 1.295,-13.235 -1.43,-4.682 0.095,-15.426 3.432,-13.883 4.043,1.871 -1.048,11.59 3.949,17.611 4.919,5.925 8.858,11.423 13.786,15.648 3.752,-3.673 8.263,-5.441 13.895,-4.339 0.611,0.119 1.22,0.248 1.824,0.39 4.589,-4.451 9.936,-11.754 8.46,-22.391 -1.478,-10.65 -12.705,-19.814 -9.112,-23.102 3.507,-3.208 7.265,3.733 11.341,10.892 3.778,6.635 7.102,13.257 10.551,9.442 4.799,-5.308 17.981,-14.326 27.068,-23.609 l 0.006,-0.447 c -2.084,3.075 -5.545,5.23 -6.542,4.706 -1.602,-0.841 -1.214,-10.894 4.335,-12.822 l 0.42,-0.81 0.432,-0.135 c -0.274,-0.425 -0.164,-0.63 0.321,-0.619 -0.191,-0.385 -0.163,-0.655 0.347,-0.671 -0.258,-0.458 -0.196,-0.741 0.384,-0.741 -0.275,-0.573 -0.043,-0.734 0.473,-0.66 l 0.204,-14.081 c -1.673,-0.503 -3.498,-0.815 -5.406,-0.996 z m -116.82,28.48 0.452,0.082 1.939,0.332 c -0.433,4.455 2.603,9.719 3.991,9.668 1.248,-0.046 3.515,-4.475 3.413,-8.574 l 1.429,0.18 1.299,0.148 c -0.923,1.325 -1.845,3.371 -2.597,6.057 -3.566,12.748 -7.806,5.622 -9.926,-7.893 z m 84.364,-36.345 c -1.281,0.672 -2.563,1.345 -3.845,2.017 l -1.037,0.527 c -0.05,0.1 -0.156,0.202 -0.307,0.306 0.452,0.241 0.359,0.495 0.018,0.756 0.44,0.206 0.449,0.438 0.017,0.698 l 0.33,0.313 0.022,0.914 c 4.138,4.193 0.088,13.389 -1.718,13.434 -1.806,0.044 -6.296,-8.942 -2.366,-13.334 l -0.023,-0.913 0.266,-0.279 c -4.694,2.328 -9.448,4.547 -14.237,6.648 0.01,0.15 -0.126,0.298 -0.369,0.444 0.435,0.269 0.327,0.517 -0.029,0.756 0.427,0.233 0.421,0.465 -0.026,0.698 l 0.31,0.333 -0.034,0.913 c 3.873,4.443 -0.733,13.369 -2.538,13.301 -1.806,-0.068 -5.736,-9.316 -1.545,-13.455 l 0.034,-0.913 0.334,-0.309 -0.091,-0.064 c -5.398,2.287 -10.831,4.424 -16.268,6.396 0.053,0.146 -0.049,0.309 -0.24,0.482 0.455,0.169 0.482,0.4 0.073,0.694 l 0.353,0.285 0.096,0.909 c 4.463,3.841 1.17,13.338 -0.626,13.53 -1.797,0.193 -6.998,-8.396 -3.436,-13.095 l -0.096,-0.909 0.286,-0.354 c -0.123,-0.053 -0.215,-0.109 -0.274,-0.168 -4.423,1.543 -8.842,2.976 -13.24,4.29 0.085,0.175 -0.044,0.36 -0.322,0.549 0.45,0.244 0.356,0.498 0.015,0.757 0.439,0.208 0.447,0.44 0.014,0.698 l 0.328,0.315 0.018,0.913 c 1.906,1.948 2.055,4.958 1.485,7.635 1.072,0.031 2.139,0.05 3.201,0.058 l 0.127,-0.077 c 0.165,-0.039 0.127,-0.029 0.247,0 l 0.125,0.076 c 28.067,0.056 53.249,-8.614 82.783,-28.813 -5.836,0.062 -11.809,0.774 -16.199,0.667 -0.136,2.493 -0.866,4.56 -1.632,4.787 -1.734,0.513 -8.379,-6.997 -5.711,-12.264 l -0.256,-0.876 0.219,-0.4 c -0.49,-0.114 -0.552,-0.338 -0.196,-0.67 -0.158,-0.056 -0.28,-0.123 -0.346,-0.208 z M 201.852,82.22 c -4.192,1.194 -8.356,2.278 -12.479,3.241 -0.047,0.066 -0.116,0.134 -0.207,0.208 0.524,0.251 0.459,0.533 0.03,0.835 0.455,0.236 0.365,0.491 0.028,0.756 0.442,0.201 0.454,0.433 0.025,0.698 l 0.333,0.309 0.033,0.913 c 0.407,0.404 0.738,0.855 0.999,1.343 3.351,0.451 6.643,0.801 9.892,1.046 -0.55,-2.525 -0.419,-5.297 1.295,-7.196 l -0.018,-0.913 0.315,-0.328 c -0.443,-0.24 -0.444,-0.473 -0.014,-0.698 -0.101,-0.07 -0.181,-0.141 -0.232,-0.214 z m -19.027,4.698 -1.832,0.392 0.132,1.217 0.061,0.493 c 1.355,0.249 2.699,0.482 4.038,0.7 l 0.308,-0.39 -0.033,-0.913 0.31,-0.333 c -0.447,-0.233 -0.452,-0.465 -0.025,-0.698 -0.356,-0.239 -0.464,-0.487 -0.028,-0.756 -0.151,-0.09 -0.26,-0.182 -0.318,-0.276 z m 125.415,-21.154 -0.306,21.11 c 4.258,-5.087 6.773,-10.119 5.501,-14.524 -0.894,-3.096 -2.745,-5.191 -5.195,-6.586 z M 285.43,44.956 c -3.934,2.481 -7.959,4.887 -12.052,7.212 0.06,0.139 -0.023,0.324 -0.209,0.541 0.498,0.116 0.474,0.386 0.212,0.726 0.478,0.084 0.546,0.307 0.196,0.67 l 0.399,0.217 0.256,0.876 c 0.747,0.439 1.352,1.028 1.828,1.719 2.483,-0.53 5.665,-0.843 9.104,-1.031 -1.397,-3.018 -2.208,-7.583 0.276,-10.318 z m 14.748,-9.971 c -3.462,2.512 -7.024,4.964 -10.677,7.354 0.029,0.153 -0.1,0.313 -0.342,0.476 0.449,0.245 0.355,0.499 0.012,0.757 0.439,0.209 0.446,0.441 0.012,0.698 l 0.327,0.316 0.015,0.913 c 2.538,2.611 1.934,7.109 0.673,10.17 5.205,-0.153 10.512,-0.16 14.566,-0.331 l 0.264,-0.197 0.257,-17.769 -0.757,-0.358 -0.72,-0.328 -0.125,0.847 c 3.365,4.844 -2.186,13.208 -3.973,12.94 -1.787,-0.267 -4.686,-9.894 -0.068,-13.544 l 0.133,-0.904 0.365,-0.27 c -0.397,-0.312 -0.359,-0.541 0.102,-0.691 z m 8.445,4.32 -0.192,13.247 1.005,-0.777 c 0.157,-0.122 0.334,-0.215 0.524,-0.274 l 2.116,-0.668 c 0.529,-3.528 -0.34,-8.313 -2.134,-10.334 -0.383,-0.433 -0.829,-0.829 -1.319,-1.194 z m 7.872,-14.221 -0.342,0.263 c 1.872,5.113 3.116,10.321 3.371,14.9 0.197,3.55 0.495,6.172 0.837,7.971 l 0.205,-0.065 c 0.517,-0.163 1.079,-0.065 1.512,0.261 0.199,0.15 0.359,0.34 0.471,0.555 0.34,-2.428 0.371,-6.609 -0.232,-11.984 -0.307,-2.744 -3.335,-7.704 -5.822,-11.901 z m -7.753,5.955 -0.006,0.45 c 0.416,-0.081 0.623,-0.292 0.536,-0.687 l -0.035,-0.143 z m -3.397,0.106 0.03,0.006 10e-4,-0.029 z"
         id="path182"
         style="fill:#a855f7;fill-opacity:1" /></g></g></svg>
